<svg width="170" height="53" viewBox="0 0 170 53" fill="none" xmlns="http://www.w3.org/2000/svg">
<path d="M50.3732 16.4C53.2292 16.4 55.4879 17.1187 57.1492 18.556C58.8105 19.9747 59.6412 22.0093 59.6412 24.66H53.7332C53.7332 23.54 53.4345 22.6533 52.8372 22C52.2585 21.3467 51.4279 21.02 50.3452 21.02C49.0945 21.02 48.1705 21.412 47.5732 22.196C46.9945 22.98 46.7052 24.072 46.7052 25.472V27.264C46.7052 28.6453 46.9945 29.7373 47.5732 30.54C48.1705 31.324 49.0759 31.716 50.2892 31.716C51.4839 31.716 52.3892 31.408 53.0052 30.792C53.6212 30.176 53.9292 29.308 53.9292 28.188H59.6412C59.6412 30.82 58.8292 32.836 57.2052 34.236C55.5999 35.636 53.3225 36.336 50.3732 36.336C47.0879 36.336 44.5959 35.496 42.8972 33.816C41.2172 32.136 40.3772 29.6533 40.3772 26.368C40.3772 23.0827 41.2172 20.6 42.8972 18.92C44.5959 17.24 47.0879 16.4 50.3732 16.4ZM72.6702 16.4C74.5182 16.4 76.1795 16.68 77.6542 17.24C79.1288 17.8 80.2955 18.6307 81.1542 19.732C82.0315 20.8147 82.4702 22.14 82.4702 23.708H76.5622C76.5622 22.9053 76.2075 22.2613 75.4982 21.776C74.7888 21.272 73.9302 21.02 72.9222 21.02C71.4662 21.02 70.3648 21.412 69.6182 22.196C68.8715 22.9613 68.4982 24.0533 68.4982 25.472V27.264C68.4982 28.6827 68.8715 29.784 69.6182 30.568C70.3648 31.3333 71.4662 31.716 72.9222 31.716C73.9302 31.716 74.7888 31.4827 75.4982 31.016C76.2075 30.5307 76.5622 29.9147 76.5622 29.168H72.1942V25.248H82.4702V36H79.2782L78.6622 34.096C76.9075 35.5893 74.6115 36.336 71.7742 36.336C68.5822 36.336 66.1835 35.5053 64.5782 33.844C62.9728 32.164 62.1702 29.672 62.1702 26.368C62.1702 23.1013 63.0755 20.628 64.8862 18.948C66.7155 17.2493 69.3102 16.4 72.6702 16.4ZM85.3264 30.512V26.088H92.4664V30.512H85.3264ZM100.867 36L94.0346 16.736H100.643L104.507 29.616H104.619L108.511 16.736H114.839L108.035 36H100.867ZM128.746 36L127.934 33.284H121.186L120.374 36H114.046L121.074 16.736H128.27L135.298 36H128.746ZM122.474 28.972H126.646L124.63 22.112H124.518L122.474 28.972ZM150.679 16.736H158.351L151.435 24.66L158.491 36H151.183L147.179 28.944L143.819 31.688V36H137.631V16.736H143.819V24.968L150.679 16.736Z" fill="black"/>
<path d="M161.459 11.416V15H159.912V11.416H158.33V10.184H163.034V11.416H161.459ZM167.876 15V13.264C167.876 13.0493 167.883 12.83 167.897 12.606C167.915 12.3773 167.934 12.186 167.953 12.032C167.971 11.878 167.983 11.78 167.988 11.738H167.96L167.071 15H165.86L164.964 11.745H164.936C164.94 11.787 164.952 11.885 164.971 12.039C164.994 12.1883 165.015 12.3773 165.034 12.606C165.052 12.83 165.062 13.0493 165.062 13.264V15H163.641V10.184H165.825L166.553 12.963H166.581L167.302 10.184H169.409V15H167.876Z" fill="black"/>
<path d="M45.535 48.12C45.2317 48.12 44.9517 48.0967 44.695 48.05C44.4383 48.0033 44.2083 47.945 44.005 47.875C43.805 47.805 43.635 47.735 43.495 47.665L43.4 46.68C43.6567 46.8267 43.96 46.9567 44.31 47.07C44.6633 47.1833 45.045 47.24 45.455 47.24C45.9217 47.24 46.265 47.1633 46.485 47.01C46.705 46.8533 46.815 46.6183 46.815 46.305V46.23C46.815 46.0267 46.77 45.86 46.68 45.73C46.5933 45.5967 46.445 45.4833 46.235 45.39C46.025 45.2933 45.74 45.2017 45.38 45.115C44.9067 44.9983 44.5233 44.8617 44.23 44.705C43.94 44.545 43.7283 44.3467 43.595 44.11C43.4617 43.87 43.395 43.5717 43.395 43.215V43.165C43.395 42.6283 43.5733 42.215 43.93 41.925C44.2867 41.635 44.8217 41.49 45.535 41.49C45.9917 41.49 46.3817 41.535 46.705 41.625C47.0317 41.7117 47.3 41.81 47.51 41.92L47.6 42.835C47.3567 42.695 47.0767 42.5783 46.76 42.485C46.4433 42.3883 46.0867 42.34 45.69 42.34C45.38 42.34 45.1317 42.375 44.945 42.445C44.7583 42.5117 44.6233 42.61 44.54 42.74C44.4567 42.8667 44.415 43.02 44.415 43.2V43.22C44.415 43.4067 44.4567 43.5667 44.54 43.7C44.6233 43.8333 44.77 43.9517 44.98 44.055C45.1933 44.155 45.495 44.255 45.885 44.355C46.3483 44.4717 46.7217 44.6033 47.005 44.75C47.2917 44.8933 47.5017 45.0817 47.635 45.315C47.7683 45.545 47.835 45.8483 47.835 46.225V46.325C47.835 46.915 47.6433 47.3617 47.26 47.665C46.8767 47.9683 46.3017 48.12 45.535 48.12ZM51.2596 48.13C50.4263 48.13 49.7929 47.9033 49.3596 47.45C48.9296 46.9967 48.7146 46.3483 48.7146 45.505V44.1C48.7146 43.26 48.9296 42.6133 49.3596 42.16C49.7929 41.7067 50.4263 41.48 51.2596 41.48C52.0929 41.48 52.7246 41.7067 53.1546 42.16C53.5879 42.6133 53.8046 43.26 53.8046 44.1V45.505C53.8046 46.3483 53.5879 46.9967 53.1546 47.45C52.7246 47.9033 52.0929 48.13 51.2596 48.13ZM51.2596 47.295C51.7663 47.295 52.1463 47.1433 52.3996 46.84C52.6563 46.5333 52.7846 46.1017 52.7846 45.545V44.06C52.7846 43.5 52.6563 43.07 52.3996 42.77C52.1463 42.4667 51.7663 42.315 51.2596 42.315C50.7529 42.315 50.3713 42.4667 50.1146 42.77C49.8613 43.07 49.7346 43.5 49.7346 44.06V45.545C49.7346 46.1017 49.8613 46.5333 50.1146 46.84C50.3713 47.1433 50.7529 47.295 51.2596 47.295ZM56.0088 48H55.0088V41.61H56.0088V48ZM58.8788 45.43H55.5788V44.59H58.8788V45.43ZM58.9538 42.45H55.2988V41.61H58.9538V42.45ZM62.5427 48H61.5377V41.785H62.5427V48ZM64.4177 42.45H59.6577V41.61H64.4177V42.45ZM67.873 48H66.308L65.038 41.61H66.063L66.868 46.045L67.078 47.16H67.158L67.358 46.045L68.153 41.77H69.613L70.403 46.045L70.603 47.16H70.688L70.898 46.045L71.703 41.61H72.723L71.458 48H69.898L69.258 44.515L68.923 42.6H68.843L68.508 44.515L67.873 48ZM73.766 48H72.751L74.711 41.61H76.266L78.226 48H77.211L75.551 42.28H75.426L73.766 48ZM76.936 46.215H74.031V45.385H76.936V46.215ZM83.8745 48H82.8345L82.6645 46.705C82.6345 46.4683 82.5811 46.2667 82.5045 46.1C82.4311 45.93 82.3161 45.7983 82.1595 45.705C82.0028 45.6117 81.7845 45.565 81.5045 45.565L79.8395 45.56V44.77L81.6095 44.765C82.0195 44.765 82.3128 44.6667 82.4895 44.47C82.6661 44.2733 82.7545 44 82.7545 43.65V43.51C82.7545 43.1667 82.6645 42.9017 82.4845 42.715C82.3045 42.5283 82.0061 42.435 81.5895 42.435H79.8195V41.61H81.7295C82.4395 41.61 82.9561 41.7617 83.2795 42.065C83.6061 42.3683 83.7695 42.7917 83.7695 43.335V43.495C83.7695 43.8983 83.6761 44.2283 83.4895 44.485C83.3061 44.7417 82.9978 44.9033 82.5645 44.97V45.1L82.1445 44.955C82.5145 44.9817 82.7995 45.0617 82.9995 45.195C83.2028 45.3283 83.3511 45.5117 83.4445 45.745C83.5378 45.9783 83.6095 46.2617 83.6595 46.595L83.8745 48ZM80.1395 48H79.1495V41.61H80.1345V45.045L80.1395 45.42V48ZM85.95 48H84.96V41.61H85.95V48ZM89.06 48H85.255V47.16H89.06V48ZM88.95 45.16H85.53V44.33H88.95V45.16ZM89.025 42.445H85.25V41.61H89.025V42.445ZM98.1326 48H96.9776C96.9242 47.9467 96.8459 47.87 96.7426 47.77C96.6392 47.67 96.5292 47.5633 96.4126 47.45C96.2959 47.3333 96.1859 47.2267 96.0826 47.13C95.9826 47.0333 95.9092 46.9617 95.8626 46.915L95.7376 46.78L93.4026 44.595L93.2576 44.42C93.0376 44.1933 92.8759 43.98 92.7726 43.78C92.6692 43.58 92.6176 43.3433 92.6176 43.07V43.035C92.6176 42.5517 92.7692 42.1733 93.0726 41.9C93.3792 41.6267 93.8442 41.49 94.4676 41.49C94.8642 41.49 95.2026 41.5283 95.4826 41.605C95.7626 41.6783 95.9959 41.7633 96.1826 41.86L96.2776 42.755C96.0609 42.6483 95.8142 42.5567 95.5376 42.48C95.2642 42.4 94.9692 42.36 94.6526 42.36C94.2926 42.36 94.0342 42.4233 93.8776 42.55C93.7242 42.6733 93.6476 42.845 93.6476 43.065V43.09C93.6476 43.2633 93.6942 43.4267 93.7876 43.58C93.8842 43.73 94.0292 43.8983 94.2226 44.085L96.3526 46.115L96.5926 46.375C96.6926 46.4717 96.7926 46.57 96.8926 46.67C96.9959 46.77 97.0992 46.8717 97.2026 46.975C97.3059 47.075 97.4092 47.1783 97.5126 47.285C97.6159 47.3883 97.7192 47.4933 97.8226 47.6C97.9259 47.7067 98.0292 47.8133 98.1326 47.92V48ZM94.2426 48.12C93.5159 48.12 92.9726 47.9533 92.6126 47.62C92.2526 47.2867 92.0726 46.8133 92.0726 46.2V46.04C92.0726 45.5733 92.1626 45.1917 92.3426 44.895C92.5259 44.595 92.8342 44.33 93.2676 44.1L93.7876 44.79C93.5442 44.9067 93.3676 45.0567 93.2576 45.24C93.1509 45.4233 93.0976 45.6633 93.0976 45.96V46.11C93.0976 46.4967 93.2009 46.79 93.4076 46.99C93.6176 47.1867 93.9259 47.285 94.3326 47.285C94.6759 47.285 94.9676 47.2167 95.2076 47.08C95.4509 46.94 95.6576 46.74 95.8276 46.48L96.0876 46.155C96.2542 45.8617 96.3826 45.5367 96.4726 45.18C96.5659 44.82 96.6309 44.4333 96.6676 44.02H97.6276C97.5676 44.5733 97.4676 45.0833 97.3276 45.55C97.1909 46.0167 96.9992 46.4283 96.7526 46.785L96.4826 47.065C96.3092 47.2883 96.1159 47.4783 95.9026 47.635C95.6926 47.7917 95.4509 47.9117 95.1776 47.995C94.9076 48.0783 94.5959 48.12 94.2426 48.12ZM101.858 48H100.868V41.61H101.858V48ZM104.968 48H101.163V47.16H104.968V48ZM104.858 45.16H101.438V44.33H104.858V45.16ZM104.933 42.445H101.158V41.61H104.933V42.445ZM106.767 48H105.657L107.582 44.575V44.8L105.707 41.61H106.797L108.272 44.175H108.337L109.807 41.61H110.897L109.022 44.8V44.575L110.942 48H109.832L108.337 45.26H108.267L106.767 48ZM114.324 45.95H112.534V45.12H114.299C114.699 45.12 114.989 45.0217 115.169 44.825C115.352 44.625 115.444 44.3483 115.444 43.995V43.56C115.444 43.1967 115.354 42.9183 115.174 42.725C114.994 42.5317 114.706 42.435 114.309 42.435H112.529V41.61H114.329C115.062 41.61 115.597 41.78 115.934 42.12C116.274 42.4567 116.444 42.9283 116.444 43.535V44.02C116.444 44.6267 116.274 45.1 115.934 45.44C115.594 45.78 115.057 45.95 114.324 45.95ZM112.864 48H111.874V41.61H112.859V45.365L112.864 45.815V48ZM119.873 48.13C119.04 48.13 118.406 47.9033 117.973 47.45C117.543 46.9967 117.328 46.3483 117.328 45.505V44.1C117.328 43.26 117.543 42.6133 117.973 42.16C118.406 41.7067 119.04 41.48 119.873 41.48C120.706 41.48 121.338 41.7067 121.768 42.16C122.201 42.6133 122.418 43.26 122.418 44.1V45.505C122.418 46.3483 122.201 46.9967 121.768 47.45C121.338 47.9033 120.706 48.13 119.873 48.13ZM119.873 47.295C120.38 47.295 120.76 47.1433 121.013 46.84C121.27 46.5333 121.398 46.1017 121.398 45.545V44.06C121.398 43.5 121.27 43.07 121.013 42.77C120.76 42.4667 120.38 42.315 119.873 42.315C119.366 42.315 118.985 42.4667 118.728 42.77C118.475 43.07 118.348 43.5 118.348 44.06V45.545C118.348 46.1017 118.475 46.5333 118.728 46.84C118.985 47.1433 119.366 47.295 119.873 47.295ZM128.347 48H127.307L127.137 46.705C127.107 46.4683 127.054 46.2667 126.977 46.1C126.904 45.93 126.789 45.7983 126.632 45.705C126.475 45.6117 126.257 45.565 125.977 45.565L124.312 45.56V44.77L126.082 44.765C126.492 44.765 126.785 44.6667 126.962 44.47C127.139 44.2733 127.227 44 127.227 43.65V43.51C127.227 43.1667 127.137 42.9017 126.957 42.715C126.777 42.5283 126.479 42.435 126.062 42.435H124.292V41.61H126.202C126.912 41.61 127.429 41.7617 127.752 42.065C128.079 42.3683 128.242 42.7917 128.242 43.335V43.495C128.242 43.8983 128.149 44.2283 127.962 44.485C127.779 44.7417 127.47 44.9033 127.037 44.97V45.1L126.617 44.955C126.987 44.9817 127.272 45.0617 127.472 45.195C127.675 45.3283 127.824 45.5117 127.917 45.745C128.01 45.9783 128.082 46.2617 128.132 46.595L128.347 48ZM124.612 48H123.622V41.61H124.607V45.045L124.612 45.42V48ZM131.791 48H130.786V41.785H131.791V48ZM133.666 42.45H128.906V41.61H133.666V42.45ZM136.473 48.12C136.169 48.12 135.889 48.0967 135.633 48.05C135.376 48.0033 135.146 47.945 134.943 47.875C134.743 47.805 134.573 47.735 134.433 47.665L134.338 46.68C134.594 46.8267 134.898 46.9567 135.248 47.07C135.601 47.1833 135.983 47.24 136.393 47.24C136.859 47.24 137.203 47.1633 137.423 47.01C137.643 46.8533 137.753 46.6183 137.753 46.305V46.23C137.753 46.0267 137.708 45.86 137.618 45.73C137.531 45.5967 137.383 45.4833 137.173 45.39C136.963 45.2933 136.678 45.2017 136.318 45.115C135.844 44.9983 135.461 44.8617 135.168 44.705C134.878 44.545 134.666 44.3467 134.533 44.11C134.399 43.87 134.333 43.5717 134.333 43.215V43.165C134.333 42.6283 134.511 42.215 134.868 41.925C135.224 41.635 135.759 41.49 136.473 41.49C136.929 41.49 137.319 41.535 137.643 41.625C137.969 41.7117 138.238 41.81 138.448 41.92L138.538 42.835C138.294 42.695 138.014 42.5783 137.698 42.485C137.381 42.3883 137.024 42.34 136.628 42.34C136.318 42.34 136.069 42.375 135.883 42.445C135.696 42.5117 135.561 42.61 135.478 42.74C135.394 42.8667 135.353 43.02 135.353 43.2V43.22C135.353 43.4067 135.394 43.5667 135.478 43.7C135.561 43.8333 135.708 43.9517 135.918 44.055C136.131 44.155 136.433 44.255 136.823 44.355C137.286 44.4717 137.659 44.6033 137.943 44.75C138.229 44.8933 138.439 45.0817 138.573 45.315C138.706 45.545 138.773 45.8483 138.773 46.225V46.325C138.773 46.915 138.581 47.3617 138.198 47.665C137.814 47.9683 137.239 48.12 136.473 48.12ZM143.016 41.61V48H142.011V41.61H143.016ZM142.561 48V47.15H145.911V48H142.561ZM148.617 48H147.612V41.785H148.617V48ZM150.492 42.45H145.732V41.61H150.492V42.45ZM153.748 48H152.198V47.155H153.713C154.239 47.155 154.634 47.0117 154.898 46.725C155.164 46.4383 155.298 46.0283 155.298 45.495V44.105C155.298 43.5683 155.164 43.1583 154.898 42.875C154.634 42.5883 154.239 42.445 153.713 42.445H152.193V41.61H153.748C154.594 41.61 155.233 41.825 155.663 42.255C156.093 42.6817 156.308 43.2967 156.308 44.1V45.5C156.308 46.3033 156.093 46.9217 155.663 47.355C155.233 47.785 154.594 48 153.748 48ZM152.503 48H151.513V41.61H152.503V48ZM157.599 48.105C157.399 48.105 157.25 48.0517 157.154 47.945C157.06 47.835 157.014 47.6833 157.014 47.49V47.44C157.014 47.2467 157.06 47.0967 157.154 46.99C157.25 46.8833 157.399 46.83 157.599 46.83C157.795 46.83 157.942 46.8833 158.039 46.99C158.135 47.0967 158.184 47.2467 158.184 47.44V47.49C158.184 47.6833 158.135 47.835 158.039 47.945C157.942 48.0517 157.795 48.105 157.599 48.105Z" fill="black"/>
<ellipse cx="15" cy="26.5" rx="14" ry="25.5" stroke="#6D6E71" stroke-width="2"/>
<path d="M4 22L18 23.5L42.5 9L4 22Z" fill="#ED1C24" stroke="#ED1C24"/>
<path d="M12.5 35L18 24L42.5 9.5L12.5 35Z" fill="white" stroke="#ED1C24"/>
</svg>
